<svg width="65" height="66" viewBox="0 0 65 66" fill="none" xmlns="http://www.w3.org/2000/svg">
<path d="M36.0038 18.3556C37.7935 16.4675 32.3348 11.2527 34.1246 6.12794C35.0194 3.43067 37.4355 2.08203 38.3304 1.45267C41.9994 -0.705143 45.7579 0.104037 46.8317 0.373764C51.0376 1.45267 55.5119 5.31876 55.5119 9.27475C55.5119 14.3996 48.3529 19.0748 46.6527 24.9189C46.4737 25.5483 46.0263 27.0767 46.6527 27.6162C47.1896 28.0657 48.4425 27.5263 49.0689 27.1666C51.2165 26.1776 51.5744 24.9189 53.0062 23.9299C54.796 22.6712 57.1227 22.6712 58.5544 22.9409C62.7603 23.9299 65.087 29.774 64.9975 34.3593C64.9975 35.2584 64.9081 40.2034 60.9706 43.5301C59.9863 44.3392 57.5701 46.4071 54.617 46.0475C51.485 45.6879 47.1002 42.4512 44.5945 40.4732C44.3261 40.2933 43.6101 39.7539 43.1627 39.9337C42.3573 40.2933 42.3573 42.1814 43.1627 43.4402C44.2365 45.1484 56.8542 54.499 41.5519 63.31C39.7622 64.299 33.9456 67.7156 28.5764 64.9284C27.771 64.4788 24.3705 62.5908 23.4756 58.9944C22.3123 54.2292 26.6077 50.3631 24.46 46.6769C24.281 46.3172 23.8336 45.6879 23.1177 45.1484C20.7015 43.4401 17.659 44.7888 14.2585 45.2383C12.4688 45.5081 6.38361 46.3172 2.89363 43.2603C-0.596359 40.1135 -1.04381 33.1905 2.17772 28.8749C3.07258 27.7061 4.23595 26.0877 6.20466 25.818C10.4105 25.1886 13.9006 31.8419 19.0908 32.1116C19.6277 32.1116 21.149 32.2015 21.5069 31.4823C21.7754 30.8529 21.149 30.0437 20.97 29.774C19.5382 27.796 17.48 28.1556 15.4218 26.807C13.7215 25.7281 12.9162 24.1097 12.2003 22.4914C10.1421 18.0858 9.96309 10.5335 15.0638 6.39767C17.5695 4.32976 22.3123 2.35176 25.5338 4.23985C30.4556 7.11693 28.1289 16.4675 33.0507 18.2656C33.9456 18.6253 35.5564 18.8051 36.2722 18.0858L36.0038 18.3556Z" fill="#CADE6C"/>
</svg>
