<svg width="89" height="89" viewBox="0 0 89 89" fill="none" xmlns="http://www.w3.org/2000/svg">
<rect x="0.5" y="0.5" width="88" height="88" rx="44" fill="white"/>
<rect x="0.5" y="0.5" width="88" height="88" rx="44" stroke="black"/>
<path d="M46.7045 23.7506L67.6566 44.9689C68.0705 45.3881 68.6319 45.6236 69.2172 45.6236C69.8026 45.6236 70.3639 45.3881 70.7778 44.9689C71.1917 44.5498 71.4243 43.9813 71.4243 43.3885C71.4243 42.7957 71.1917 42.2272 70.7778 41.808L49.8063 20.5709C48.3992 19.1461 46.491 18.3457 44.5012 18.3457C42.5114 18.3457 40.6032 19.1461 39.1961 20.5709L18.2246 41.808C17.8107 42.2272 17.5781 42.7957 17.5781 43.3885C17.5781 43.9813 17.8107 44.5498 18.2246 44.9689C18.6385 45.3881 19.1998 45.6236 19.7852 45.6236C20.3706 45.6236 20.9319 45.3881 21.3458 44.9689L42.2909 23.7568L42.2891 26.4029V68.4186C42.2891 69.0113 42.5216 69.5797 42.9355 69.9988C43.3493 70.4179 43.9106 70.6534 44.4959 70.6534C45.0812 70.6534 45.6425 70.4179 46.0563 69.9988C46.4702 69.5797 46.7027 69.0113 46.7027 68.4186L46.7045 23.7506Z" fill="#CADE6C"/>
</svg>
