<svg width="289" height="117" viewBox="0 0 289 117" fill="none" xmlns="http://www.w3.org/2000/svg">
<g clip-path="url(#clip0_498_2295)">
<path d="M24.3876 40.6658C21.1028 32.5979 21.7996 23.3216 23.9563 17.7361C28.5351 5.84668 43.1345 1.95975 45.3244 1.37181C48.8415 0.424571 56.0084 -1.1106 63.4076 1.33914C88.7241 9.70095 93.2366 53.6658 64.6684 50.5628C54.2498 49.4522 50.5668 39.0326 45.8552 39.0326C45.1585 39.0326 43.2672 39.1306 41.6745 40.3718C38.9869 42.4623 39.0201 46.2839 39.0201 48.3743C39.0201 50.4321 39.0201 54.5804 41.575 56.0829C43.3004 57.0954 45.0257 56.2135 48.0451 55.5603C53.5199 54.3517 63.1753 53.7964 66.2279 58.3693C67.2233 59.8718 67.6879 61.8643 67.3892 64.4447C65.8629 76.8241 57.8665 73.3291 49.4719 71.0753C41.0773 68.8216 42.3381 75.3216 42.869 76.0728C43.3667 76.8241 53.8185 98.7412 33.4458 102.726C13.0731 106.711 11.7128 99.1004 11.4473 90.5753C11.4473 89.8241 11.58 89.2361 11.8787 88.7788C14.4667 84.8592 22.5959 88.5175 28.502 83.9447C31.0237 81.9849 32.5168 78.9472 32.6827 76.0402C32.9813 70.7814 28.9001 67.1884 28.0374 66.4371C27.3407 65.8492 25.2503 64.1507 22.0982 63.6281C17.1543 62.7788 15.6612 65.8819 10.7837 65.1306C10.0206 65 6.30438 64.3467 3.4177 61.2437C2.68773 60.4598 -0.497572 57.0628 0.132853 52.5879C0.862818 47.4598 6.30438 43.4748 10.3856 43.9648C13.6704 44.3567 14.1681 47.1984 19.4769 48.6683C20.771 49.0276 24.6862 50.1055 26.113 48.505C27.5397 46.8718 25.5821 43.4422 24.4208 40.5678L24.3876 40.6658Z" fill="white"/>
<path d="M101.467 54.2546C99.3436 57.6189 96.5564 60.7873 93.7693 66.634C93.3048 67.5813 92.3425 69.3124 92.6412 71.4355C92.8734 73.1014 93.902 74.6365 95.0633 75.4531C97.7509 77.3476 101.733 75.4531 106.942 73.6566C116.1 70.4883 123.598 67.8752 128.774 70.521C132.491 72.4154 133.851 76.4004 134.614 78.4255C138.795 89.7923 130.998 104.915 121.276 107.463C117.261 108.508 112.151 107.626 106.809 106.712C103.524 106.157 102.894 105.765 99.7086 105.111C92.3425 103.609 89.3895 103.544 82.7534 103.805C71.439 104.262 65.7652 101.747 63.1107 98.0561C59.1291 92.5034 61.6508 84.4355 62.0821 83.0963C64.8693 74.5712 70.7754 74.5385 79.535 63.727C85.2751 56.6064 89.7545 51.0536 90.2854 43.1818C90.8494 34.6566 86.6355 26.4255 90.0531 22.0159C92.1103 19.4029 94.7979 18.5536 94.7979 18.5536C95.2956 18.3903 96.3905 18.0963 98.1823 18.1617C102.662 18.325 106.079 20.3828 106.544 20.7094C112.815 24.8903 107.572 39.4255 105.946 44.2597C104.785 47.624 103.79 50.629 101.5 54.222L101.467 54.2546Z" fill="white"/>
<path d="M278.451 22.0493C279.115 21.3634 277.091 19.4689 277.754 17.6071C278.086 16.6272 278.982 16.1372 279.314 15.9086C280.674 15.1247 282.068 15.4187 282.466 15.5166C284.025 15.9086 285.684 17.3131 285.684 18.7503C285.684 20.6121 283.03 22.3106 282.4 24.4337C282.333 24.6624 282.167 25.2176 282.4 25.4136C282.599 25.5769 283.063 25.381 283.295 25.2503C284.092 24.891 284.225 24.4337 284.755 24.0744C285.419 23.6171 286.282 23.6171 286.813 23.7151C288.372 24.0744 289.235 26.1975 289.202 27.8634C289.202 28.19 289.168 29.9865 287.708 31.195C287.343 31.489 286.448 32.2403 285.353 32.1096C284.191 31.979 282.566 30.8031 281.636 30.0845C281.537 30.0192 281.271 29.8232 281.106 29.8885C280.807 30.0192 280.807 30.7051 281.106 31.1624C281.504 31.783 286.182 35.18 280.508 38.381C279.845 38.7403 277.688 39.9815 275.697 38.9689C275.399 38.8056 274.138 38.1197 273.806 36.8131C273.375 35.082 274.967 33.6774 274.171 32.3383C274.105 32.2076 273.939 31.979 273.673 31.783C272.777 31.1624 271.649 31.6523 270.388 31.8156C269.725 31.9136 267.469 32.2076 266.174 31.097C264.88 29.9538 264.715 27.4388 265.909 25.8709C266.241 25.4463 266.672 24.8584 267.402 24.7604C268.962 24.5317 270.256 26.9488 272.18 27.0468C272.379 27.0468 272.943 27.0795 273.076 26.8182C273.176 26.5895 272.943 26.2955 272.877 26.1975C272.346 25.479 271.583 25.6096 270.82 25.1197C270.189 24.7277 269.891 24.1398 269.625 23.5518C268.862 21.9513 268.796 19.2076 270.687 17.7051C271.616 16.9538 273.375 16.2352 274.569 16.9212C276.394 17.9664 275.531 21.3634 277.356 22.0166C277.688 22.1473 278.285 22.2126 278.551 21.9513L278.451 22.0493Z" fill="#CADE6C"/>
<path d="M207.277 24.0083C215.174 14.438 231.565 13.1641 242.879 18.8802C259.536 27.2747 263.551 49.9104 257.512 61.2119C255.521 64.9355 252.867 66.634 251.805 67.2546C245.501 70.8802 235.547 69.9003 230.901 63.8249C228.844 61.1465 228.38 58.1742 228.28 56.247C228.015 53.3727 227.849 51.0209 227.749 49.3877C227.583 46.4154 227.616 45.4355 226.787 44.6189C225.393 43.2144 222.507 43.0511 221.047 44.2923C220.35 44.8802 220.085 45.6641 220.018 46.0561C217.696 57.7496 232.859 78.5887 232.859 78.5887C237.67 85.1867 239.097 86.0033 239.959 89.629C241.652 96.7822 238.699 104.948 234.053 109.75C223.038 121.182 198.219 118.536 185.975 105.34C185.478 104.817 176.287 93.6139 179.837 80.7119C180.5 78.2948 182.889 69.6063 191.118 66.732C195.1 65.3274 201.57 64.9028 205.485 68.4958C212.088 74.5385 206.282 87.1465 211.524 89.5636C213.614 90.5435 216.833 89.5636 218.293 87.7671C219.653 86.134 219.487 83.9455 219.222 82.2797C218.094 75.1591 213.548 70.5209 210.164 65.4581C209.069 63.8249 203.627 55.4631 202.532 45.5661C202.134 42.0385 200.973 31.6516 207.244 24.0083H207.277Z" fill="white"/>
<path d="M189.922 35.3424C188.097 34.9177 184.945 34.9504 182.523 36.6162C180.698 37.8574 180.101 39.4579 177.247 40.8298C176.384 41.2544 174.759 42.0057 173.962 41.3851C173.133 40.6991 173.697 38.7393 173.962 37.8901C176.318 30.2142 185.94 24.0409 185.907 17.3122C185.907 12.0208 179.902 6.9906 174.261 5.55342C172.834 5.19412 167.824 4.14889 162.847 7.02327C161.586 7.74186 158.401 9.60367 157.173 13.1313C154.817 19.9253 162.084 26.7846 159.728 29.2343C158.766 30.2469 156.675 29.9529 155.415 29.5283C148.878 27.1439 151.897 14.7971 145.361 11.0735C141.014 8.59111 134.677 11.1715 131.293 13.8826C124.524 19.3047 124.656 29.2343 127.444 35.0157C128.472 37.1388 129.501 39.262 131.823 40.6665C134.577 42.3323 137.331 41.9404 139.256 44.5208C139.521 44.8801 140.351 45.9906 139.953 46.7745C139.488 47.7544 137.398 47.6564 136.668 47.6238C129.667 47.2645 125.021 38.6087 119.314 39.36C116.726 39.7192 115.101 41.8424 113.906 43.4102C109.659 48.9956 110.223 58.174 114.901 62.2896C119.514 66.3725 127.709 65.262 130.098 64.9353C134.71 64.3147 138.758 62.5182 142.043 64.8047C143.072 65.5233 143.636 66.3399 143.901 66.7645C146.854 71.5986 141.048 76.7268 142.607 82.9981C143.768 87.7017 148.38 90.2167 149.475 90.7394C156.675 94.365 164.572 89.9228 166.928 88.5836C187.4 76.9554 170.478 64.6414 169.052 62.4203C168.023 60.8198 168.023 58.3047 169.151 57.8474C169.748 57.6187 170.644 58.2393 171.042 58.5007C174.46 60.9831 180.333 65.262 184.547 65.7846C188.462 66.2419 191.714 63.5308 193.074 62.4203C198.35 58.0434 198.449 51.576 198.483 50.4002C198.582 44.4554 195.43 36.6816 189.823 35.4404L189.922 35.3424ZM159.33 52.3273C156.045 53.8298 151.201 50.6615 151.3 47.3625C151.367 45.076 153.822 42.7569 156.642 42.6916C158.799 42.6263 161.221 43.8675 161.984 46.1866C162.814 48.7343 161.321 51.4127 159.297 52.3273H159.33Z" fill="white"/>
</g>
<defs>
<clipPath id="clip0_498_2295">
<rect width="289" height="117" fill="white"/>
</clipPath>
</defs>
</svg>
