<svg width="128" height="52" viewBox="0 0 128 52" fill="none" xmlns="http://www.w3.org/2000/svg">
    <g clip-path="url(#floslogoID)">
        <path d="M10.8024 18.0738C9.3475 14.4881 9.65611 10.3652 10.6113 7.88283C12.6394 2.59863 19.1055 0.871107 20.0754 0.609801C21.6332 0.188807 24.8074 -0.493494 28.0846 0.595284C39.2975 4.31164 41.2961 23.8516 28.643 22.4724C24.0286 21.9789 22.3973 17.3479 20.3105 17.3479C20.0019 17.3479 19.1643 17.3915 18.4589 17.9431C17.2685 18.8722 17.2832 20.5707 17.2832 21.4998C17.2832 22.4144 17.2832 24.258 18.4148 24.9258C19.179 25.3759 19.9431 24.9839 21.2805 24.6936C23.7053 24.1564 27.9817 23.9096 29.3337 25.942C29.7746 26.6098 29.9803 27.4953 29.8481 28.6422C29.1721 34.1441 25.6304 32.5908 21.9124 31.5891C18.1943 30.5875 18.7528 33.4764 18.9879 33.8102C19.2084 34.1441 23.8375 43.8851 14.8143 45.6561C5.79113 47.4272 5.18861 44.0448 5.07104 40.2558C5.07104 39.9219 5.12982 39.6606 5.26208 39.4574C6.40835 37.7153 10.0088 39.3412 12.6247 37.3089C13.7415 36.4378 14.4028 35.0877 14.4763 33.7957C14.6086 31.4585 12.801 29.8616 12.4189 29.5277C12.1103 29.2664 11.1845 28.5115 9.78838 28.2793C7.59871 27.9018 6.9374 29.2809 4.77712 28.947C4.43912 28.889 2.7932 28.5986 1.51467 27.2195C1.19136 26.8711 -0.219432 25.3613 0.0597874 23.3725C0.383094 21.0933 2.7932 19.3223 4.60078 19.54C6.05566 19.7142 6.27609 20.9772 8.62741 21.6305C9.20055 21.7901 10.9346 22.2692 11.5666 21.5579C12.1985 20.832 11.3314 19.3077 10.8171 18.0302L10.8024 18.0738Z" fill="#373931"/>
        <path d="M44.9408 24.1128C44.0003 25.6081 42.7658 27.0162 41.5314 29.6148C41.3256 30.0358 40.8995 30.8052 41.0317 31.7488C41.1346 32.4892 41.5902 33.1715 42.1045 33.5344C43.2949 34.3764 45.0584 33.5344 47.3656 32.736C51.4216 31.3278 54.7429 30.1664 57.0354 31.3423C58.6813 32.1843 59.2838 33.9554 59.6218 34.8554C61.4735 39.9074 58.02 46.6288 53.7141 47.7611C51.936 48.2256 49.6728 47.8337 47.3068 47.4272C45.8519 47.1804 45.5727 47.0062 44.1619 46.7159C40.8995 46.0481 39.5915 46.019 36.6524 46.1352C31.6411 46.3384 29.1282 45.2206 27.9525 43.5802C26.189 41.1123 27.3059 37.5266 27.4969 36.9314C28.7314 33.1424 31.3472 33.1279 35.2269 28.3228C37.7693 25.1581 39.7532 22.6902 39.9883 19.1916C40.2381 15.4026 38.3718 11.7443 39.8854 9.78453C40.7966 8.62317 41.9869 8.24573 41.9869 8.24573C42.2074 8.17314 42.6923 8.04249 43.4859 8.07152C45.4698 8.14411 46.9835 9.05868 47.1892 9.20385C49.9667 11.062 47.6448 17.5221 46.9247 19.6706C46.4104 21.1659 45.9695 22.5015 44.9555 24.0983L44.9408 24.1128Z" fill="#373931"/>
        <path d="M123.327 9.79969C123.621 9.49484 122.724 8.65285 123.018 7.82538C123.165 7.38987 123.562 7.17211 123.709 7.07049C124.311 6.72208 124.929 6.85274 125.105 6.89629C125.796 7.07049 126.53 7.69472 126.53 8.33347C126.53 9.16094 125.355 9.91583 125.075 10.8594C125.046 10.9611 124.973 11.2078 125.075 11.2949C125.164 11.3675 125.369 11.2804 125.472 11.2224C125.825 11.0627 125.884 10.8594 126.119 10.6997C126.413 10.4965 126.795 10.4965 127.03 10.5401C127.721 10.6997 128.103 11.6434 128.088 12.3837C128.088 12.5289 128.073 13.3273 127.427 13.8645C127.265 13.9951 126.868 14.329 126.383 14.2709C125.869 14.2129 125.149 13.6903 124.737 13.3709C124.693 13.3418 124.576 13.2547 124.502 13.2838C124.37 13.3418 124.37 13.6467 124.502 13.8499C124.679 14.1258 126.751 15.6355 124.238 17.0582C123.944 17.2179 122.989 17.7695 122.107 17.3195C121.975 17.2469 121.416 16.9421 121.269 16.3614C121.078 15.592 121.784 14.9678 121.431 14.3726C121.402 14.3145 121.328 14.2129 121.211 14.1258C120.814 13.8499 120.314 14.0677 119.756 14.1403C119.462 14.1838 118.462 14.3145 117.889 13.8209C117.316 13.3128 117.243 12.195 117.772 11.4982C117.919 11.3095 118.11 11.0482 118.433 11.0046C119.124 10.903 119.697 11.9772 120.549 12.0208C120.637 12.0208 120.887 12.0353 120.946 11.9192C120.99 11.8176 120.887 11.6869 120.858 11.6434C120.623 11.324 120.285 11.382 119.947 11.1643C119.667 10.9901 119.535 10.7288 119.418 10.4675C119.08 9.75614 119.05 8.53671 119.888 7.86893C120.299 7.53504 121.078 7.21566 121.607 7.52052C122.416 7.98506 122.033 9.49484 122.842 9.78518C122.989 9.84324 123.253 9.87228 123.371 9.75614L123.327 9.79969Z" fill="#CADE6C"/>
        <path d="M91.8027 10.6698C95.3003 6.41634 102.56 5.85018 107.571 8.39066C114.949 12.1215 116.727 22.1818 114.052 27.2047C113.17 28.8597 111.995 29.6146 111.524 29.8904C108.732 31.5018 104.324 31.0663 102.266 28.3661C101.355 27.1757 101.149 25.8546 101.105 24.9981C100.988 23.7206 100.914 22.6754 100.87 21.9496C100.797 20.6285 100.811 20.193 100.444 19.8301C99.8266 19.2058 98.5481 19.1333 97.9015 19.6849C97.5929 19.9462 97.4753 20.2946 97.4459 20.4688C96.4172 25.6659 103.133 34.9278 103.133 34.9278C105.264 37.8602 105.896 38.2232 106.278 39.8345C107.028 43.0138 105.72 46.643 103.662 48.777C98.7832 53.858 87.7908 52.6821 82.3681 46.8172C82.1476 46.585 78.0769 41.6056 79.6493 35.8714C79.9433 34.7971 81.0013 30.9356 84.6459 29.6581C86.4094 29.0339 89.2751 28.8452 91.0092 30.442C93.9336 33.1277 91.3619 38.7313 93.6838 39.8055C94.6096 40.241 96.0351 39.8055 96.6817 39.0071C97.2842 38.2812 97.2108 37.3086 97.0932 36.5682C96.5935 33.4035 94.5802 31.3421 93.0813 29.0919C92.5963 28.3661 90.1862 24.6497 89.7012 20.2511C89.5249 18.6832 89.0105 14.0668 91.788 10.6698H91.8027Z" fill="#373931"/>
        <path d="M84.117 15.7072C83.3088 15.5185 81.9127 15.533 80.8399 16.2733C80.0316 16.825 79.7671 17.5363 78.5033 18.146C78.1212 18.3348 77.4011 18.6686 77.0484 18.3928C76.681 18.088 76.9308 17.2169 77.0484 16.8395C78.0918 13.428 82.3535 10.6843 82.3388 7.69377C82.3388 5.34201 79.6789 3.10639 77.1806 2.46764C76.5487 2.30796 74.3297 1.84341 72.1253 3.12091C71.5669 3.44028 70.1561 4.26775 69.6123 5.83559C68.5689 8.85514 71.7873 11.9037 70.7439 12.9925C70.3177 13.4425 69.3919 13.3119 68.8335 13.1231C65.9384 12.0634 67.2757 6.57596 64.3806 4.92102C62.4555 3.81773 59.6486 4.96457 58.1496 6.16949C55.1517 8.57931 55.2105 12.9925 56.4449 15.562C56.9005 16.5056 57.3561 17.4492 58.3848 18.0734C59.6045 18.8138 60.8243 18.6396 61.6766 19.7865C61.7942 19.9461 62.1616 20.4397 61.9852 20.7881C61.7795 21.2236 60.8537 21.1801 60.5303 21.1656C57.4295 21.0059 55.3721 17.1589 52.8445 17.4928C51.6982 17.6525 50.9781 18.5961 50.4491 19.2929C48.568 21.7753 48.8178 25.8546 50.8899 27.6837C52.9326 29.4984 56.5625 29.0048 57.6206 28.8596C59.6633 28.5838 61.4562 27.7853 62.9111 28.8015C63.3666 29.1209 63.6165 29.4838 63.734 29.6726C65.0419 31.8211 62.4702 34.1003 63.1609 36.8875C63.6752 38.978 65.7179 40.0958 66.2029 40.3281C69.3919 41.9394 72.8895 39.9651 73.9329 39.3699C83.0002 34.2019 75.5053 28.729 74.8734 27.7418C74.4178 27.0305 74.4178 25.9126 74.9175 25.7094C75.182 25.6078 75.5788 25.8836 75.7551 25.9998C77.2688 27.103 79.87 29.0048 81.7363 29.237C83.4704 29.4403 84.9106 28.2354 85.5131 27.7418C87.8498 25.7965 87.8938 22.9221 87.9085 22.3995C87.9526 19.7574 86.5565 16.3024 84.0729 15.7507L84.117 15.7072ZM70.5675 23.256C69.1127 23.9238 66.9671 22.5157 67.0112 21.0494C67.0406 20.0332 68.1281 19.0025 69.3772 18.9735C70.3324 18.9445 71.4052 19.4961 71.7432 20.5268C72.1106 21.6592 71.4493 22.8496 70.5529 23.256H70.5675Z" fill="#373931"/>
    </g>
    <defs>
        <clipPath id="floslogoID">
            <rect width="128" height="52" fill="white"/>
        </clipPath>
    </defs>
</svg>
