<svg width="530" height="834" viewBox="0 0 530 834" fill="none" xmlns="http://www.w3.org/2000/svg">
<path d="M0.265625 826.585C131.306 844.025 273.876 812.625 368.136 719.935C387.646 700.745 434.356 649.075 436.156 577.885C437.346 531.065 418.626 480.165 391.986 466.395C388.716 464.705 379.686 460.035 371.476 463.505C360.716 468.055 354.936 485.065 360.136 495.615C366.746 509.045 389.336 508.315 396.606 508.075C437.776 506.735 467.176 471.205 476.146 459.835C498.366 431.675 508.896 402.375 515.306 373.645C523.926 335.015 550.666 215.165 481.526 95.2754C468.136 72.0554 443.996 36.4354 402.806 1.52539" stroke="white" stroke-width="4" stroke-miterlimit="10"/>
</svg>
