<svg width="142" height="144" viewBox="0 0 142 144" fill="none" xmlns="http://www.w3.org/2000/svg">
<rect width="141.435" height="143.715" rx="70.7177" fill="white"/>
<path d="M56.8916 94.6865C58.7402 94.5453 60.3538 95.9297 60.4951 97.7783C60.7747 101.435 61.7522 103.726 62.8701 105.152C63.9674 106.553 65.3821 107.357 67.0068 107.737C70.4587 108.546 74.6991 107.375 77.2539 105.734C82.7044 102.232 87.4378 99.8959 92.5449 98.6094C97.6531 97.3225 102.914 97.142 109.342 97.6484C111.19 97.7943 112.57 99.4107 112.425 101.259C112.279 103.107 110.662 104.487 108.813 104.342C102.791 103.867 98.3278 104.076 94.1846 105.12C90.2996 106.099 86.5005 107.861 81.8291 110.783L80.8828 111.384C77.1939 113.753 71.1061 115.594 65.4746 114.274C62.5578 113.591 59.7418 112.045 57.5859 109.294C55.4509 106.569 54.1527 102.906 53.7998 98.29C53.6585 96.4413 55.0429 94.8278 56.8916 94.6865ZM78.5859 55.6729C78.5859 45.472 69.1162 35.7148 57.1406 35.7148C45.1686 35.7151 35.7148 45.4689 35.7148 55.6729C35.7149 60.795 38.0811 66.4152 42.0918 70.7783C46.0847 75.1219 51.4354 77.9326 57.1475 77.9326C62.8658 77.9326 68.2173 75.1203 72.21 70.7764C76.2208 66.4126 78.5859 60.7923 78.5859 55.6729ZM85.3008 55.6729C85.3007 62.7323 82.1162 69.9207 77.1533 75.3203C72.1722 80.7397 65.1256 84.6464 57.1475 84.6465C49.1751 84.6465 42.1303 80.7407 37.1494 75.3223C32.1865 69.9235 29 62.7356 29 55.6729C29 41.5068 41.7196 29.0003 57.1406 29C72.5585 29 85.3008 41.5034 85.3008 55.6729Z" fill="black"/>
<path d="M57.3261 77.9373C58.3354 77.9445 59.2879 78.4062 59.9199 79.1932L67.4404 88.5584H67.4414C68.1541 89.4463 68.6175 90.5066 68.7871 91.6297L68.8173 91.8553L68.8398 92.0819C68.9296 93.214 68.7179 94.3514 68.2255 95.3778C67.7003 96.4727 66.8764 97.397 65.8486 98.0438C64.8209 98.6905 63.6312 99.0322 62.417 99.0321V99.033H51.9716V99.0321C50.75 99.0332 49.5528 98.6883 48.5205 98.035C47.4864 97.3805 46.6604 96.4447 46.1386 95.3377C45.6169 94.2307 45.4208 92.9981 45.5742 91.784L45.6074 91.5565C45.7913 90.4268 46.2729 89.3648 47.0048 88.4813L54.7148 79.1561C55.3579 78.3782 56.3169 77.9302 57.3261 77.9373ZM52.5439 92.3192H61.8496L57.2636 86.6082L52.5439 92.3192Z" fill="black"/>
</svg>
