<svg width="129" height="130" viewBox="0 0 129 130" fill="none" xmlns="http://www.w3.org/2000/svg">
<rect width="129" height="130" rx="64.5" fill="white"/>
<path d="M47.6116 79.0854C56.601 79.1062 65.0898 83.9335 69.758 91.6157L70.1985 92.3687L70.1995 92.3706C72.3544 96.215 73.5117 100.543 73.5647 104.954C73.5869 106.808 72.1013 108.329 70.2473 108.351C68.3935 108.373 66.8731 106.888 66.8508 105.035C66.8113 101.745 65.9486 98.5192 64.344 95.6558V95.6567C60.9668 89.6454 54.4545 85.821 47.6125 85.7993C44.2116 85.8254 40.8754 86.7482 37.9368 88.4771C34.9937 90.2085 32.5511 92.6886 30.8557 95.6714C29.2559 98.5324 28.3962 101.754 28.3577 105.04C28.3359 106.893 26.816 108.379 24.9621 108.357C23.1083 108.335 21.6232 106.815 21.6448 104.961C21.6965 100.548 22.8529 96.2172 25.009 92.3706L25.0188 92.354C27.2931 88.3528 30.573 85.0193 34.5325 82.6899C38.492 80.3605 42.9918 79.1172 47.5813 79.0854H47.6116ZM55.9553 60.1294C55.9553 59.0385 55.7388 57.9588 55.3186 56.9546C54.8984 55.9504 54.2833 55.042 53.511 54.2827C52.7388 53.5236 51.8251 52.9279 50.8235 52.5308C49.8218 52.1336 48.7512 51.9422 47.676 51.9673C45.5697 52.0166 43.562 52.8936 42.0832 54.4165C40.6037 55.9402 39.7717 57.9905 39.7717 60.1294C39.7718 62.2681 40.6038 64.3177 42.0832 65.8413C43.5621 67.3642 45.5697 68.2413 47.676 68.2905C48.7512 68.3156 49.8218 68.1242 50.8235 67.7271C51.8251 67.3299 52.7388 66.7343 53.511 65.9751C54.2833 65.2158 54.8984 64.3074 55.3186 63.3032C55.7387 62.2991 55.9553 61.2201 55.9553 60.1294ZM82.3342 36.8374C84.445 36.8146 86.5395 37.2109 88.4963 38.0044C90.4531 38.7979 92.2333 39.9724 93.7356 41.4585C95.2378 42.9446 96.4328 44.7139 97.2522 46.6636C98.0714 48.6131 98.4997 50.7055 98.5129 52.8208C98.5131 52.8526 98.5126 52.8847 98.5119 52.9165C98.447 55.8249 97.6088 58.6701 96.0637 61.147C94.8989 63.0141 93.3692 64.616 91.5754 65.8618V70.2778C91.5754 70.312 91.5755 70.3462 91.5744 70.3804C91.5367 71.6115 91.0233 72.7835 90.1379 73.647C89.2523 74.5106 88.0633 74.9967 86.8215 74.9966V74.9976H78.4299C77.1912 74.9926 76.0067 74.5035 75.1252 73.6401C74.2443 72.7772 73.7341 71.6079 73.6965 70.3804C73.6955 70.3462 73.6955 70.312 73.6955 70.2778V65.9751C71.9728 64.7794 70.4933 63.2547 69.3459 61.481C67.8116 59.1089 66.9233 56.3749 66.7688 53.5522C66.7676 53.5306 66.7666 53.5085 66.7659 53.4868C66.6912 51.3726 67.0321 49.2639 67.7698 47.2817C68.5074 45.2995 69.6276 43.4818 71.0666 41.9341C72.5058 40.3863 74.2364 39.1391 76.1584 38.2642C78.0804 37.3893 80.1559 36.9042 82.2659 36.8384C82.2886 36.8377 82.3115 36.8376 82.3342 36.8374ZM82.4338 43.5513C81.2278 43.5944 80.0407 43.8733 78.9397 44.3745C77.826 44.8815 76.8218 45.606 75.9846 46.5063C75.1473 47.4069 74.4935 48.466 74.0627 49.6235C73.6353 50.7721 73.4353 51.9945 73.4748 53.2212C73.5711 54.8658 74.092 56.4561 74.9836 57.8345C75.8817 59.2227 77.1249 60.3468 78.5862 61.0972C79.7056 61.6721 80.4093 62.8251 80.4094 64.0835V68.2827H84.8616V63.9722C84.8616 62.7141 85.5649 61.562 86.6838 60.9868C88.1906 60.2125 89.4638 59.0403 90.3664 57.5933C91.2584 56.1635 91.7513 54.513 91.7971 52.811C91.7828 51.5917 91.5334 50.3874 91.0618 49.2651C90.5834 48.127 89.8874 47.0962 89.0139 46.2319C88.1403 45.3677 87.1064 44.6867 85.9729 44.2271C84.8478 43.7708 83.6455 43.5417 82.4338 43.5513ZM58.5198 31.4644C59.5884 29.9492 61.6833 29.5872 63.1985 30.6558L67.3352 33.5728C68.8502 34.6413 69.2122 36.7363 68.1438 38.2515C67.0752 39.7666 64.9803 40.1287 63.4651 39.0601L59.3284 36.1431C57.8132 35.0745 57.4512 32.9795 58.5198 31.4644ZM102.065 30.6577C103.579 29.5881 105.674 29.948 106.743 31.4624C107.813 32.9768 107.452 35.0715 105.938 36.1411L101.808 39.0591C100.293 40.1287 98.1988 39.7677 97.1291 38.2534C96.0595 36.7391 96.4196 34.6444 97.9338 33.5747L102.065 30.6577ZM79.2844 30.0796V25.0005C79.2844 23.1464 80.7877 21.6431 82.6418 21.6431C84.4958 21.6432 85.9983 23.1465 85.9983 25.0005V30.0796C85.9982 31.9335 84.4958 33.4369 82.6418 33.437C80.7878 33.437 79.2845 31.9336 79.2844 30.0796ZM62.6702 60.1294C62.6701 62.1091 62.2768 64.0693 61.5129 65.895C60.7489 67.7209 59.6294 69.3765 58.219 70.7632C56.8086 72.1498 55.1355 73.2398 53.2981 73.9683C51.4605 74.6968 49.4955 75.0485 47.5198 75.0024C43.6468 74.912 39.9669 73.3007 37.2659 70.519C34.5655 67.7382 33.057 64.0088 33.0569 60.1294C33.0569 56.2499 34.5654 52.5198 37.2659 49.7388C39.9669 46.9572 43.6468 45.3458 47.5198 45.2554C49.4955 45.2093 51.4605 45.561 53.2981 46.2896C55.1355 47.018 56.8086 48.108 58.219 49.4946C59.6294 50.8813 60.7489 52.5369 61.5129 54.3628C62.2769 56.1887 62.6702 58.1495 62.6702 60.1294Z" fill="black"/>
</svg>
