<svg width="142" height="135" viewBox="0 0 142 135" fill="none" xmlns="http://www.w3.org/2000/svg">
<rect width="141.717" height="135" rx="67.5" fill="white"/>
<g clip-path="url(#clip0_920_1269)">
<path d="M94.8467 92.126H34.7148V100.923C34.7148 101.644 35.0007 102.337 35.5107 102.847C36.0208 103.357 36.7132 103.643 37.4346 103.643H92.127C92.8481 103.643 93.5398 103.357 94.0498 102.847C94.5599 102.337 94.8467 101.644 94.8467 100.923V92.126ZM55.665 55.0273C57.5191 55.0273 59.0225 56.5307 59.0225 58.3848C59.0224 60.2388 57.5191 61.7422 55.665 61.7422H49.5879C47.734 61.742 46.2315 60.2387 46.2314 58.3848C46.2314 56.5308 47.7339 55.0275 49.5879 55.0273H55.665ZM61.7422 39.835C63.5962 39.835 65.0996 41.3383 65.0996 43.1924C65.0996 45.0464 63.5962 46.5497 61.7422 46.5498H49.5879C47.734 46.5496 46.2315 45.0463 46.2314 43.1924C46.2314 41.3384 47.7339 39.8351 49.5879 39.835H61.7422ZM101.561 100.923C101.561 103.425 100.567 105.825 98.7979 107.594C97.0287 109.363 94.6289 110.357 92.127 110.357H37.4346C34.9325 110.357 32.5329 109.363 30.7637 107.594C28.9944 105.825 28 103.425 28 100.923V34.0771C28 31.5751 28.9944 29.1755 30.7637 27.4062C32.5329 25.637 34.9325 24.6426 37.4346 24.6426H76.9346C78.7886 24.6427 80.291 26.146 80.291 28C80.291 29.854 78.7886 31.3573 76.9346 31.3574H37.4346C36.7132 31.3574 36.0208 31.6433 35.5107 32.1533C35.0007 32.6634 34.7148 33.3558 34.7148 34.0771V85.4121H94.8467V73.5771C94.8467 71.7232 96.3492 70.22 98.2031 70.2197C100.057 70.2197 101.561 71.723 101.561 73.5771V100.923Z" fill="black"/>
<path d="M107.003 40.5537C107.003 40.1947 106.932 39.8392 106.794 39.5078C106.655 39.1764 106.453 38.8759 106.198 38.623L99.7369 32.1621C99.4841 31.9072 99.1835 31.7045 98.8521 31.5664C98.5207 31.4283 98.1652 31.3574 97.8062 31.3574C97.4472 31.3574 97.0917 31.4284 96.7603 31.5664C96.4289 31.7045 96.1274 31.9072 95.8746 32.1621C95.8697 32.167 95.8648 32.1719 95.8599 32.1768L70.9224 56.9941L68.8316 69.708L81.3433 67.4561L106.183 42.5L106.198 42.4844C106.453 42.2315 106.655 41.931 106.794 41.5996C106.932 41.2682 107.003 40.9127 107.003 40.5537ZM113.717 40.5537C113.717 41.799 113.471 43.0321 112.992 44.1816C112.516 45.3245 111.818 46.3616 110.941 47.2354L110.942 47.2363L85.358 72.9424C84.873 73.4296 84.2495 73.7561 83.5728 73.8779L65.3424 77.1592C64.2691 77.3524 63.1691 77.0122 62.3922 76.2471C61.6152 75.4818 61.2582 74.3866 61.4351 73.3105L64.4732 54.8369L64.526 54.5781C64.6727 53.9827 64.9805 53.437 65.4176 53.002L91.1236 27.418V27.4189C91.9975 26.5418 93.0352 25.8444 94.1783 25.3682C95.3278 24.8893 96.5609 24.6426 97.8062 24.6426C99.0515 24.6426 100.285 24.8893 101.434 25.3682C102.58 25.8454 103.62 26.5441 104.495 27.4238L110.926 33.8555C111.811 34.7325 112.513 35.7762 112.992 36.9258C113.471 38.0753 113.717 39.3084 113.717 40.5537Z" fill="black"/>
</g>
<defs>
<clipPath id="clip0_920_1269">
<rect width="91.7174" height="85" fill="white" transform="translate(25 25)"/>
</clipPath>
</defs>
</svg>
