<svg width="390" height="424" viewBox="0 0 390 424" fill="none" xmlns="http://www.w3.org/2000/svg">
<path d="M118.233 59.2695C139.001 -19.0893 250.088 -19.0893 270.855 59.2695H270.856L274.471 72.8184L274.601 73.3037L275.085 73.1719L288.623 69.4883C366.795 48.3142 422.372 144.58 364.901 201.698L364.9 201.699L354.977 211.63L354.623 211.983L354.977 212.337L364.9 222.268L364.901 222.269C422.308 279.389 366.793 375.718 288.623 354.479L275.085 350.796L274.601 350.664L274.471 351.149L270.856 364.697L270.855 364.698C250.088 443.057 139.001 443.057 118.233 364.698V364.697L114.618 351.149L114.489 350.664L114.004 350.796L100.466 354.479C22.2938 375.652 -33.2826 279.387 24.1875 222.269L24.1895 222.268L34.1133 212.337L34.4658 211.983L34.1133 211.63L24.1895 201.699L24.1885 201.698L23.5205 201.027C-32.7844 143.827 22.6015 48.3325 100.466 69.4883L114.004 73.1719L114.489 73.3037L114.618 72.8184L118.233 59.2695Z" fill="white" stroke="black"/>
</svg>
